<svg xmlns="http://www.w3.org/2000/svg" width="900" height="900" viewBox="0 0 900 900"><defs><style>
      .cls-1 {
        fill-rule: evenodd;
      }
    </style></defs><path id="Google_scholar_1" data-name="Google scholar 1" class="cls-1" d="M424.084,4.842C661.589,0.858,784.913,118.675,862.277,278.713c46.752,96.71,43.125,246.242,0,344.579-66.01,150.526-184.77,238.413-372.464,268.892-70.42,11.435-157.887-11.319-208.142-33.86C149.56,799.066,70.7,710.489,23.734,565.53,9.045,520.2-1.259,446.842,10.787,387.265c5.8-28.7,10.911-57.529,19.918-83.655,46.539-135,145.31-224.23,275.863-275.863L390.223,7.829ZM317.523,325.52c2.032,80.867,56.585,122.444,141.417,121.5-15.53,27.2.636,56.776,11.951,76.684-85.3-1.6-150.59,24.8-180.257,82.659-5.973,11.648-13.434,29.928-8.963,48.8C302.25,742.037,459.779,762.92,546.579,720.89c54.655-26.465,98.8-106.077,48.8-173.286-22.187-29.823-73.218-40.286-82.66-81.663-8.551-37.474,51.391-61.244,64.733-84.651,9.158-16.066,19.8-42.753,12.947-67.721-4.367-15.9-12.7-30.048-12.947-49.8l16.931-15.934,69.712-50.791,1.992,1c2.792,22.268-8.384,33.374-11.951,51.787q0.5,17.426,1,34.856-1.992,48.3-3.983,96.6,0.995,19.417,1.991,38.84c4.632,26.793,6.382,37.984,36.849,31.868,16.135-31.682,11.6-98.827,4.979-140.421q0.5-34.355,1-68.717c-3.316-14.526-18.417-30.86-12.947-51.786,4.515-17.27,21.981-21.64,29.877-35.852l-325.658,1L263.744,263.774c-19.794,17.434-57.4,40.078-70.708,61.746H317.523Zm112.536-96.6c59.181-.969,89.566,42.784,102.577,87.639,14.175,48.865-7.368,102.3-42.823,114.528-65.529,22.6-134.773-89.136-111.541-156.356C387.9,246.871,403.729,240.557,430.059,228.918Zm15.934,311.715c57.152-1.132,104.784,18.9,122.5,56.766,20.641,44.126-5.1,87.936-34.856,103.573-70.292,36.944-178.649,10.976-192.208-59.754-2.948-15.379-1.7-35.908,4.98-47.8,12.695-22.611,38.243-39.243,65.729-46.808Z"></path></svg>